<?xml version="1.0" standalone="no"?>
<!DOCTYPE svg PUBLIC "-//W3C//DTD SVG 20010904//EN"
 "http://www.w3.org/TR/2001/REC-SVG-20010904/DTD/svg10.dtd">
<svg version="1.0" xmlns="http://www.w3.org/2000/svg"
 width="128.000000pt" height="128.000000pt" viewBox="0 0 128.000000 128.000000"
 preserveAspectRatio="xMidYMid meet">
<metadata>
Created by potrace 1.11, written by Peter Selinger 2001-2013
</metadata>
<g transform="translate(0.000000,128.000000) scale(0.100000,-0.100000)"
fill="#000000" stroke="none">
<path d="M209 1062 c-12 -8 -19 -25 -19 -45 0 -36 32 -164 47 -192 9 -15 0
-32 -47 -94 -84 -110 -150 -231 -150 -274 0 -38 55 -102 138 -159 63 -44 140
-76 244 -103 81 -21 111 -24 233 -21 77 2 152 6 166 10 111 26 256 86 290 118
8 8 27 23 42 35 44 34 87 93 87 120 0 46 -76 182 -160 288 -41 51 -47 64 -37
80 16 29 47 154 47 189 0 17 -4 37 -9 45 -12 19 -89 22 -123 4 -15 -7 -30 -13
-33 -13 -3 0 -34 -14 -69 -31 -44 -22 -70 -29 -83 -24 -10 5 -20 9 -23 10 -3
1 -14 5 -24 10 -32 14 -139 9 -193 -9 l-52 -17 -53 28 c-112 61 -177 74 -219
45z"/>
</g>
</svg>
